<?xml version="1.0" encoding="UTF-8"?>
<!-- Created with Inkscape (http://www.inkscape.org/) -->
<svg width="28.451mm" height="28.471mm" version="1.1" viewBox="0 0 28.451 28.471" xmlns="http://www.w3.org/2000/svg">
 <g transform="translate(-17.378 -56.257)">
  <path d="m17.378 56.257v27.485h5.4839v0.98599h3.3548c-0.35919-0.04655-0.69039-0.15434-0.99322-0.32453-0.4134-0.23426-0.7407-0.55294-0.98185-0.95601-0.23771-0.40652-0.35657-0.86644-0.35657-1.3798 0-0.51331 0.11886-0.97152 0.35657-1.3746 0.24116-0.40652 0.56845-0.72692 0.98185-0.96118 0.41686-0.23426 0.88712-0.3514 1.4108-0.3514 0.4203 0 0.80788 0.07752 1.1627 0.23254 0.35828 0.15502 0.66318 0.3738 0.91467 0.65629l-0.74414 0.79065c-0.15503-0.16881-0.34279-0.29972-0.56327-0.39274-0.21704-0.09302-0.44787-0.13953-0.69246-0.13953-0.29628 0-0.55983 0.06546-0.79065 0.19637-0.22738 0.13091-0.40652 0.31179-0.53744 0.5426-0.12747 0.23082-0.1912 0.4961-0.1912 0.79582 0 0.29972 0.06373 0.56672 0.1912 0.80098 0.13091 0.23082 0.31006 0.41341 0.53744 0.54777 0.23082 0.13091 0.49437 0.19637 0.79065 0.19637 0.2446 0 0.47715-0.04651 0.69763-0.13953 0.22049-0.09646 0.40652-0.22738 0.55811-0.39274l0.75448 0.78031c-0.25149 0.28594-0.55638 0.50815-0.91467 0.66663-0.23799 0.10298-0.4907 0.1711-0.75758 0.20567h4.6576c-0.36089-0.04657-0.69306-0.15439-0.9958-0.32453-0.41341-0.23426-0.7407-0.55294-0.98185-0.95601-0.23771-0.40652-0.35657-0.86644-0.35657-1.3798 0-0.51331 0.11886-0.97152 0.35657-1.3746 0.24116-0.40652 0.56845-0.72692 0.98185-0.96118 0.41686-0.23426 0.88884-0.3514 1.4159-0.3514 0.52365 0 0.99219 0.11714 1.4056 0.3514 0.41341 0.23426 0.73725 0.55466 0.97152 0.96118 0.23771 0.40308 0.35657 0.86128 0.35657 1.3746 0 0.51332-0.11886 0.97324-0.35657 1.3798-0.23426 0.40307-0.55811 0.72175-0.97152 0.95601-0.3003 0.17017-0.6301 0.27797-0.98857 0.32453h3.7481v-4.0039h-0.90434v-1.1369h0.90434v-0.90434c0-0.35829 0.08096-0.67524 0.24288-0.95085 0.16536-0.2756 0.3893-0.49093 0.67179-0.64596 0.28594-0.15847 0.61495-0.23771 0.98702-0.23771 0.23082 0 0.46509 0.03273 0.7028 0.09819 0.23771 0.06546 0.47026 0.16709 0.69763 0.30489l-0.48059 0.99219c-0.11369-0.08613-0.23254-0.14986-0.35657-0.1912-0.12058-0.04479-0.24116-0.06718-0.36174-0.06718-0.23771 0-0.4358 0.08441-0.59428 0.25321-0.15847 0.16881-0.23771 0.39963-0.23771 0.69246v0.65629h1.5606v1.1369h-1.5606v4.0039h2.1565l2.1895-2.6241-2.0774-2.5166h1.7312l1.2144 1.6226 1.1937-1.6226h1.7157l-2.0567 2.496 2.1844 2.6448h0.0124c0.0019-9.8571 0.0011-19.993 1e-3 -28.471zm14.739 24.265c-0.27216 0-0.51849 0.06718-0.73897 0.20154-0.21704 0.13436-0.3893 0.31867-0.51676 0.55294-0.12402 0.23082-0.18604 0.49265-0.18604 0.78548 0 0.29628 0.06201 0.56155 0.18604 0.79582 0.12747 0.23426 0.29973 0.41858 0.51676 0.55294 0.22049 0.13436 0.46682 0.20154 0.73897 0.20154 0.27561 0 0.52194-0.06718 0.73897-0.20154 0.21704-0.13436 0.38758-0.31868 0.5116-0.55294 0.12747-0.23427 0.1912-0.49954 0.1912-0.79582 0-0.29283-0.06373-0.55466-0.1912-0.78548-0.12402-0.23426-0.29456-0.41858-0.5116-0.55294-0.21704-0.13436-0.46337-0.20154-0.73897-0.20154zm10.651 2.4391-1.3389 1.7663h2.6572z" fill="#2aa0a2" style="font-variation-settings:'wght' 600"/>
 </g>
</svg>
